<svg width="100" height="100" viewBox="0 0 100 100" fill="none" xmlns="http://www.w3.org/2000/svg">
<path d="M50 10.9375C42.2742 10.9375 34.7219 13.2285 28.2981 17.5207C21.8743 21.813 16.8675 27.9137 13.911 35.0514C10.9544 42.1892 10.1809 50.0433 11.6881 57.6207C13.1953 65.1981 16.9157 72.1584 22.3787 77.6214C27.8416 83.0843 34.8019 86.8047 42.3793 88.3119C49.9567 89.8192 57.8108 89.0456 64.9486 86.089C72.0863 83.1325 78.1871 78.1258 82.4793 71.702C86.7715 65.2782 89.0625 57.7258 89.0625 50C89.0511 39.6435 84.932 29.7144 77.6088 22.3912C70.2856 15.068 60.3565 10.9489 50 10.9375ZM50 85.9375C42.8923 85.9375 35.9441 83.8298 30.0342 79.8809C24.1243 75.9321 19.5181 70.3194 16.7981 63.7527C14.0781 57.186 13.3664 49.9601 14.753 42.9889C16.1397 36.0177 19.5624 29.6143 24.5884 24.5883C29.6143 19.5624 36.0178 16.1397 42.989 14.753C49.9602 13.3664 57.186 14.0781 63.7527 16.7981C70.3194 19.5181 75.9321 24.1243 79.881 30.0342C83.8298 35.9441 85.9375 42.8922 85.9375 50C85.9272 59.528 82.1376 68.6629 75.4002 75.4002C68.6629 82.1376 59.5281 85.9272 50 85.9375ZM63.75 60.3164C61.585 63.2013 58.5673 65.3321 55.1242 66.4068C51.6811 67.4815 47.9871 67.4458 44.5655 66.3047C41.1438 65.1636 38.1678 62.975 36.059 60.0487C33.9502 57.1225 32.8154 53.6069 32.8154 50C32.8154 46.3931 33.9502 42.8775 36.059 39.9513C38.1678 37.025 41.1438 34.8364 44.5655 33.6953C47.9871 32.5542 51.6811 32.5185 55.1242 33.5932C58.5673 34.6679 61.585 36.7987 63.75 39.6836C63.8734 39.8477 63.9632 40.0346 64.0144 40.2335C64.0655 40.4323 64.077 40.6393 64.0482 40.8426C64.0194 41.0459 63.9508 41.2416 63.8463 41.4184C63.7419 41.5952 63.6036 41.7497 63.4395 41.873C63.2753 41.9964 63.0885 42.0862 62.8896 42.1374C62.6907 42.1886 62.4837 42.2001 62.2804 42.1712C62.0771 42.1424 61.8815 42.0738 61.7047 41.9693C61.5279 41.8649 61.3734 41.7267 61.25 41.5625C59.4791 39.2013 57.0102 37.4572 54.193 36.5772C51.3758 35.6971 48.3531 35.7258 45.5531 36.6591C42.7531 37.5925 40.3177 39.3832 38.5919 41.7775C36.8662 44.1719 35.9375 47.0485 35.9375 50C35.9375 52.9515 36.8662 55.8281 38.5919 58.2225C40.3177 60.6168 42.7531 62.4075 45.5531 63.3409C48.3531 64.2742 51.3758 64.3029 54.193 63.4228C57.0102 62.5428 59.4791 60.7987 61.25 58.4375C61.4992 58.106 61.8698 57.887 62.2804 57.8288C62.691 57.7705 63.1079 57.8778 63.4395 58.127C63.771 58.3761 63.99 58.7468 64.0482 59.1574C64.1064 59.568 63.9992 59.9849 63.75 60.3164Z" fill="#0E83AD" fill-opacity="0.352941"/>
</svg>
