<svg width="100" height="100" viewBox="0 0 100 100" fill="none" xmlns="http://www.w3.org/2000/svg">
<path d="M50 8.33337C44.5283 8.33337 39.1101 9.41111 34.0549 11.5051C28.9997 13.599 24.4064 16.6682 20.5373 20.5373C12.7232 28.3513 8.33337 38.9494 8.33337 50C8.33337 68.4167 20.2917 84.0417 36.8334 89.5834C38.9167 89.9167 39.5834 88.625 39.5834 87.5V80.4584C28.0417 82.9584 25.5834 74.875 25.5834 74.875C23.6667 70.0417 20.9584 68.75 20.9584 68.75C17.1667 66.1667 21.25 66.25 21.25 66.25C25.4167 66.5417 27.625 70.5417 27.625 70.5417C31.25 76.875 37.375 75 39.75 74C40.125 71.2917 41.2084 69.4584 42.375 68.4167C33.125 67.375 23.4167 63.7917 23.4167 47.9167C23.4167 43.2917 25 39.5834 27.7084 36.625C27.2917 35.5834 25.8334 31.25 28.125 25.625C28.125 25.625 31.625 24.5 39.5834 29.875C42.875 28.9584 46.4584 28.5 50 28.5C53.5417 28.5 57.125 28.9584 60.4167 29.875C68.375 24.5 71.875 25.625 71.875 25.625C74.1667 31.25 72.7084 35.5834 72.2917 36.625C75 39.5834 76.5834 43.2917 76.5834 47.9167C76.5834 63.8334 66.8334 67.3334 57.5417 68.375C59.0417 69.6667 60.4167 72.2084 60.4167 76.0834V87.5C60.4167 88.625 61.0834 89.9584 63.2084 89.5834C79.75 84 91.6667 68.4167 91.6667 50C91.6667 44.5283 90.589 39.1101 88.495 34.0549C86.4011 28.9997 83.3319 24.4064 79.4628 20.5373C75.5937 16.6682 71.0004 13.599 65.9452 11.5051C60.89 9.41111 55.4718 8.33337 50 8.33337Z" fill="#0E83AD"/>
</svg>
