<svg width="100" height="100" viewBox="0 0 100 100" fill="none" xmlns="http://www.w3.org/2000/svg">
<path d="M76.8333 12.75H23.1667C20.4064 12.7577 17.7613 13.8576 15.8095 15.8095C13.8576 17.7613 12.7577 20.4064 12.75 23.1667V76.8333C12.7577 79.5936 13.8576 82.2387 15.8095 84.1905C17.7613 86.1424 20.4064 87.2423 23.1667 87.25H76.8333C79.596 87.25 82.2455 86.1525 84.199 84.199C86.1525 82.2455 87.25 79.596 87.25 76.8333V23.1667C87.25 20.404 86.1525 17.7545 84.199 15.801C82.2455 13.8475 79.596 12.75 76.8333 12.75ZM83.0833 76.8333C83.0724 78.4876 82.4104 80.0709 81.2407 81.2407C80.0709 82.4104 78.4876 83.0724 76.8333 83.0833H23.1667C21.5124 83.0724 19.9291 82.4104 18.7593 81.2407C17.5896 80.0709 16.9276 78.4876 16.9167 76.8333V23.1667C16.9276 21.5124 17.5896 19.9291 18.7593 18.7593C19.9291 17.5896 21.5124 16.9276 23.1667 16.9167H76.8333C78.4876 16.9276 80.0709 17.5896 81.2407 18.7593C82.4104 19.9291 83.0724 21.5124 83.0833 23.1667V76.8333Z" fill="#0E83AD"/>
<path d="M26.5667 44.7834C26.5667 43.6783 27.0056 42.6185 27.787 41.8371C28.5684 41.0557 29.6282 40.6167 30.7333 40.6167C31.8384 40.6167 32.8982 41.0557 33.6796 41.8371C34.461 42.6185 34.9 43.6783 34.9 44.7834V71.8667C34.9 72.9718 34.461 74.0316 33.6796 74.813C32.8982 75.5944 31.8384 76.0334 30.7333 76.0334C29.6282 76.0334 28.5684 75.5944 27.787 74.813C27.0056 74.0316 26.5667 72.9718 26.5667 71.8667V44.7834Z" fill="#0E83AD"/>
<path d="M30.7333 32.2664C33.0345 32.2664 34.9 30.401 34.9 28.0998C34.9 25.7986 33.0345 23.9331 30.7333 23.9331C28.4321 23.9331 26.5667 25.7986 26.5667 28.0998C26.5667 30.401 28.4321 32.2664 30.7333 32.2664Z" fill="#0E83AD"/>
<path d="M73.4167 55.7083V71.875C73.4167 72.9801 72.9778 74.0399 72.1964 74.8213C71.415 75.6027 70.3552 76.0417 69.2501 76.0417C68.145 76.0417 67.0852 75.6027 66.3038 74.8213C65.5224 74.0399 65.0834 72.9801 65.0834 71.875V55.7083C65.0834 53.9236 64.3744 52.2121 63.1125 50.9501C61.8505 49.6881 60.1389 48.9792 58.3542 48.9792C56.5696 48.9792 54.858 49.6881 53.596 50.9501C52.334 52.2121 51.6251 53.9236 51.6251 55.7083V71.875C51.6251 72.9801 51.1861 74.0399 50.4047 74.8213C49.6233 75.6027 48.5635 76.0417 47.4584 76.0417C46.3533 76.0417 45.2935 75.6027 44.5121 74.8213C43.7307 74.0399 43.2917 72.9801 43.2917 71.875V44.7917C43.3089 43.692 43.7534 42.6421 44.5311 41.8644C45.3089 41.0867 46.3587 40.6422 47.4584 40.625C48.1641 40.6057 48.862 40.7775 49.4781 41.1222C50.0942 41.4669 50.6057 41.9718 50.9584 42.5833C53.2495 41.2848 55.8414 40.6106 58.4748 40.628C61.1083 40.6455 63.691 41.354 65.9647 42.6828C68.2384 44.0116 70.1233 45.914 71.4311 48.1999C72.7389 50.4857 73.4236 53.0748 73.4167 55.7083Z" fill="#0E83AD"/>
</svg>
