<svg width="55" height="55" viewBox="0 0 55 55" fill="none" xmlns="http://www.w3.org/2000/svg">
<g clip-path="url(#clip0_145_3)">
<path fill-rule="evenodd" clip-rule="evenodd" d="M1.59728 17.8131C1.69143 17.8163 1.78524 17.8001 1.87287 17.7655C1.96051 17.731 2.04011 17.6787 2.10672 17.6121C2.17334 17.5455 2.22555 17.4659 2.26012 17.3783C2.2947 17.2906 2.31089 17.1968 2.30769 17.1027L2.60561 5.98352C2.60561 3.44435 1.25353 2.89435 6.37998 2.6881C8.66707 2.52768 10.9564 2.43602 13.2435 2.2756C14.6414 2.2756 16.1494 2.02352 17.6825 1.81727C17.8791 1.78882 18.0566 1.68418 18.1766 1.52595C18.2967 1.36773 18.3497 1.16862 18.3242 0.971641C18.3157 0.870022 18.2867 0.771166 18.2391 0.681018C18.1914 0.59087 18.126 0.511292 18.0468 0.44707C17.9676 0.382847 17.8762 0.335307 17.7782 0.307308C17.6801 0.279308 17.5774 0.271428 17.4762 0.284141H14.1396C11.4583 0.355183 8.91915 0.217683 6.28832 0.17185C5.03117 0.0968524 3.76963 0.189329 2.53686 0.44685C1.83447 0.646246 1.2003 1.03467 0.703526 1.56977C0.412484 1.95018 0.222276 2.39935 0.155817 2.87372C0.0156064 3.92013 -0.0304115 4.97701 0.0183172 6.03164L0.889151 17.1279C0.895103 17.3123 0.972569 17.4872 1.10516 17.6155C1.23775 17.7438 1.41506 17.8155 1.59957 17.8154M38.1608 2.43602C38.9171 2.43602 39.765 2.43602 40.6335 2.32143H44.385C45.485 2.32143 47.4283 2.45893 49.1906 2.61935C50.1027 2.64227 51.0079 2.80956 51.8673 3.12352C52.0964 3.26102 52.0735 3.60477 52.0964 3.9256C52.1484 4.57949 52.1484 5.23491 52.0964 5.89185L52.6464 16.005C52.6385 16.1327 52.6631 16.2604 52.718 16.376C52.7729 16.4916 52.8562 16.5915 52.9601 16.6661C53.0641 16.7408 53.1853 16.7878 53.3124 16.8028C53.4395 16.8179 53.5684 16.8004 53.6869 16.7521C53.8354 16.6929 53.9621 16.5895 54.0498 16.4558C54.1376 16.3222 54.1821 16.1648 54.1773 16.005L54.6356 5.9606C54.7589 4.83774 54.7047 3.70247 54.4752 2.59643C54.2626 1.85947 53.7699 1.23508 53.1025 0.857058C51.9189 0.37067 50.6535 0.114019 49.3739 0.100808C47.686 0.0687206 45.9975 0.129925 44.3162 0.284141L38.0004 1.06331C37.9098 1.07457 37.8223 1.10377 37.7431 1.14921C37.6639 1.19464 37.5946 1.2554 37.5391 1.32794C37.4836 1.40047 37.4432 1.48333 37.4201 1.57167C37.397 1.66001 37.3917 1.75207 37.4046 1.84247C37.4275 2.02103 37.5196 2.18346 37.661 2.29487C37.8024 2.40628 37.9819 2.45778 38.1608 2.43831M17.1348 52.1583H9.69832C8.17359 52.2622 6.64811 52.2622 5.12186 52.1583C2.23894 51.8833 2.53686 51.5166 2.55978 49.8689C2.55978 48.9981 2.55978 47.7629 2.35353 46.4131C2.14728 43.6906 1.73478 40.3952 1.59728 38.6352C1.59733 38.5429 1.57881 38.4516 1.54284 38.3667C1.50687 38.2817 1.45417 38.2049 1.38788 38.1408C1.32159 38.0766 1.24307 38.0265 1.157 37.9933C1.07092 37.9601 0.979053 37.9446 0.886859 37.9477C0.706908 37.9599 0.53834 38.0401 0.41535 38.172C0.292359 38.304 0.224153 38.4777 0.224567 38.6581L0.0183172 49.846C0.0274839 50.6924 0.142067 51.5235 0.362067 52.3393C0.504151 52.9191 0.834151 53.4325 1.30165 53.806C2.41769 54.4935 3.69644 54.8716 5.00728 54.9037C6.65575 54.9266 8.29582 54.8121 9.92748 54.56L17.2723 53.8266C17.4737 53.8023 17.6578 53.7005 17.7855 53.5429C17.9133 53.3853 17.9747 53.1842 17.9569 52.982C17.939 52.7799 17.8432 52.5927 17.6898 52.4599C17.5364 52.3272 17.3374 52.2593 17.1348 52.2706V52.1583ZM54.9312 45.2008L54.1085 37.0562C54.1139 36.9628 54.1002 36.8692 54.0681 36.7812C54.0361 36.6932 53.9864 36.6127 53.9221 36.5446C53.8579 36.4766 53.7804 36.4223 53.6944 36.3852C53.6084 36.3482 53.5158 36.329 53.4222 36.329C53.3285 36.329 53.2359 36.3482 53.1499 36.3852C53.064 36.4223 52.9865 36.4766 52.9222 36.5446C52.8579 36.6127 52.8083 36.6932 52.7762 36.7812C52.7442 36.8692 52.7304 36.9628 52.7358 37.0562V45.155C52.7358 45.9112 52.5525 47.6254 52.3462 49.1585C52.3233 49.901 52.1935 50.6259 51.9567 51.3333C51.8444 51.5396 51.5006 51.5396 51.1798 51.6083C50.8589 51.6771 49.8529 51.8375 49.3969 51.9062C48.3121 52.0896 47.2213 52.2118 46.1244 52.2729C43.2185 52.4562 39.7169 52.525 38.0004 52.6602C37.7917 52.672 37.5959 52.7649 37.4546 52.919C37.3134 53.0731 37.2378 53.2762 37.2442 53.4852C37.2503 53.5874 37.2765 53.6873 37.3213 53.7794C37.3661 53.8714 37.4286 53.9538 37.5052 54.0216C37.5818 54.0895 37.671 54.1417 37.7678 54.1751C37.8646 54.2084 37.967 54.2224 38.0692 54.2162C39.7879 54.2162 43.2644 54.4683 46.1702 54.5371C47.3863 54.5752 48.5986 54.5371 49.8071 54.4225C50.7646 54.369 51.7147 54.2232 52.6442 53.9871C53.2858 53.7671 53.8312 53.3408 54.2025 52.7748C54.6379 51.7435 54.8831 50.6435 54.9335 49.5252C55.0237 48.0845 55.0237 46.643 54.9335 45.2008M37.086 24.1954L41.0437 23.6454C41.6121 23.6546 42.1773 23.6087 42.7396 23.5079C43.0145 23.4199 43.2703 23.2807 43.4935 23.0977C43.9656 22.6623 44.3117 22.1123 44.4996 21.4958C44.7517 20.4966 44.9044 19.4822 44.9579 18.4525C45.43 16.6585 45.4849 14.7802 45.1183 12.9616C44.9037 12.4703 44.565 12.0432 44.1355 11.7222C43.706 11.4012 43.2005 11.1974 42.6685 11.1306L40.8604 10.9014H38.0004C36.8798 10.9014 35.5529 10.9014 34.2489 11.1077C33.4805 11.1856 32.7181 11.3002 31.9619 11.4514C31.8835 11.3356 31.7707 11.2474 31.6393 11.1994C31.508 11.1514 31.3648 11.146 31.2303 11.1841C31.0957 11.2222 30.9766 11.3018 30.8899 11.4115C30.8032 11.5212 30.7533 11.6555 30.7473 11.7952C30.5639 13.0762 30.4264 14.3573 30.3348 15.6612C30.2431 16.9675 30.0369 18.2921 29.991 19.5066C29.991 19.8962 29.7871 20.7648 29.7642 21.4729C29.7342 21.9183 29.8047 22.3647 29.9704 22.7791C30.2103 23.1912 30.541 23.5433 30.9373 23.8085C31.3335 24.0738 31.785 24.2452 32.2575 24.31C33.8641 24.5055 35.4905 24.4669 37.086 24.1954ZM31.8931 21.7937V12.9846C32.649 12.8536 33.4133 12.777 34.1802 12.7554H37.8423L40.5648 12.9616L42.0521 13.2366C42.2916 13.2732 42.5112 13.3911 42.674 13.5706C42.8368 13.75 42.9328 13.9801 42.9458 14.2221C42.8899 15.5471 42.6745 16.8605 42.3041 18.1339C41.8687 20.8106 41.7542 20.8793 40.5625 21.0168L36.6277 21.6814C35.653 21.8693 34.6691 21.9984 33.676 22.0687C33.1828 22.139 32.682 22.139 32.1887 22.0687C32.0512 21.9312 32.0535 21.9083 31.8931 21.7937ZM24.821 33.7837C24.8543 33.3336 24.8543 32.8817 24.821 32.4316C24.7721 32.0734 24.6298 31.7344 24.4085 31.4485C24.0653 31.0111 23.6064 30.6785 23.0839 30.4883C22.1874 30.21 21.2518 30.0784 20.3133 30.0987C18.7825 30.0758 17.2517 30.1835 15.7392 30.4196C14.1863 30.655 12.6804 31.1345 11.2773 31.8404C11.0924 31.9341 10.9509 32.0957 10.8826 32.2913C10.8142 32.487 10.8243 32.7015 10.9106 32.89C10.9568 32.9822 11.0208 33.0644 11.0989 33.1317C11.1771 33.199 11.2678 33.2501 11.3659 33.2821C11.4639 33.3141 11.5674 33.3263 11.6702 33.318C11.773 33.3097 11.8731 33.281 11.9648 33.2337C13.2463 32.6926 14.6037 32.3525 15.9889 32.2254C17.4124 32.1007 18.844 32.1007 20.2675 32.2254C20.7839 32.267 21.2969 32.3435 21.8029 32.4546C22.0845 32.5008 22.3466 32.6282 22.5569 32.8212V37.5123C22.6149 38.3143 22.6149 39.1157 22.5569 39.9162C22.5511 40.1889 22.5047 40.4592 22.4194 40.7183C22.2549 40.6656 22.0863 40.6272 21.9152 40.6037C21.2735 40.6037 20.6112 40.6037 19.9719 40.7412L18.0262 40.991L14.8225 41.6098C11.4583 42.1139 11.4583 41.9306 11.4583 40.8306V34.8585C11.4637 34.765 11.45 34.6715 11.4179 34.5835C11.3859 34.4955 11.3362 34.415 11.2719 34.3469C11.2077 34.2789 11.1302 34.2246 11.0442 34.1875C10.9582 34.1505 10.8656 34.1313 10.772 34.1313C10.6783 34.1313 10.5857 34.1505 10.4997 34.1875C10.4138 34.2246 10.3363 34.2789 10.272 34.3469C10.2077 34.415 10.1581 34.4955 10.126 34.5835C10.094 34.6715 10.0802 34.765 10.0856 34.8585L9.55853 40.7848C9.50507 41.3174 9.50507 41.854 9.55853 42.3866C9.59897 42.7204 9.74326 43.0331 9.97103 43.2804C10.2656 43.5608 10.6294 43.7577 11.0252 43.851C11.6592 43.9916 12.2994 44.045 12.9456 44.0114L15.235 43.851L18.3242 43.4614L21.8923 43.1635C22.343 43.2093 22.7937 43.2093 23.2444 43.1635C23.7337 43.0566 24.1611 42.7609 24.4337 42.3408C24.7454 41.8229 24.9494 41.2477 25.0296 40.6473C25.1322 39.5665 25.1322 38.4784 25.0296 37.3977L24.821 33.7837ZM26.0562 17.7673C25.9417 15.8904 25.7125 14.0364 25.5979 12.1848C25.5969 12.0719 25.569 11.9609 25.5166 11.861C25.4642 11.7611 25.3887 11.6751 25.2964 11.6101C25.2041 11.5451 25.0977 11.5031 24.9859 11.4875C24.8742 11.4718 24.7603 11.483 24.6537 11.5202C24.5286 11.5683 24.4209 11.6531 24.3448 11.7635C24.2687 11.874 24.2278 12.0048 24.2275 12.1389C23.9754 14.0135 23.7462 15.8675 23.6087 17.7443C23.6087 18.5464 23.6087 19.3462 23.4942 20.146C23.4942 21.8625 23.7921 22.4354 21.7548 22.6164C20.8014 22.7784 19.8405 22.8624 18.8719 22.8685C18.6688 22.843 18.4639 22.8985 18.3014 23.0228C18.1389 23.1472 18.0318 23.3305 18.0033 23.5331C17.9872 23.6343 17.9918 23.7376 18.0168 23.837C18.0419 23.9363 18.0868 24.0295 18.149 24.111C18.2111 24.1924 18.2891 24.2604 18.3784 24.3107C18.4676 24.3611 18.5661 24.3928 18.6679 24.4039C20.1767 24.6807 21.7117 24.7883 23.2444 24.7248C24.1194 24.6924 24.9644 24.3969 25.6689 23.8768C25.9805 23.5342 26.1734 23.1002 26.2189 22.6393C26.2734 21.878 26.2734 21.1137 26.2189 20.3523C26.1044 19.3668 26.1044 18.5671 26.0585 17.7673M15.4183 15.3175C15.0903 15.2939 14.7609 15.2939 14.4329 15.3175C13.6331 15.3175 12.9227 15.5925 12.1458 15.5925C11.9775 15.5703 11.8069 15.6111 11.6669 15.7072C11.5269 15.8032 11.4274 15.9477 11.3875 16.1127C11.3477 16.2778 11.3703 16.4517 11.4511 16.6011C11.5319 16.7504 11.6651 16.8646 11.825 16.9216C12.7279 17.396 13.7019 17.7214 14.7079 17.8818C15.2793 17.9506 15.8522 17.9506 16.4267 17.8818C17.2494 17.8818 18.0262 17.5381 18.8489 17.4464C19.0579 17.4527 19.261 17.3772 19.4151 17.236C19.5692 17.0947 19.6621 16.8989 19.6739 16.6902C19.6562 16.5022 19.5688 16.3276 19.4288 16.2008C19.2889 16.074 19.1065 16.0041 18.9177 16.005C18.0987 15.7871 17.2656 15.6263 16.4244 15.5237C16.0944 15.4321 15.7605 15.3633 15.4183 15.3175ZM31.2285 31.0383C32.7158 31.0383 34.3177 31.1987 36.0342 31.1758C36.9508 31.1758 37.8881 31.0383 38.8254 30.9466C40.2669 30.8091 41.6625 30.6029 43.0123 30.5571C43.1401 30.5677 43.2686 30.5468 43.3864 30.4961C43.5043 30.4455 43.6079 30.3668 43.6882 30.2668C43.7685 30.1668 43.8231 30.0486 43.8471 29.9226C43.8711 29.7966 43.8638 29.6667 43.8258 29.5441C43.7796 29.3968 43.6907 29.2665 43.5703 29.1698C43.45 29.0731 43.3036 29.0144 43.1498 29.001C41.7521 28.7316 40.3381 28.5555 38.9171 28.4739H37.0631C36.457 28.5084 35.8533 28.5773 35.255 28.6802C33.7677 28.9323 32.4179 29.3448 31.1369 29.6656C30.9522 29.6886 30.784 29.7831 30.6683 29.9288C30.5526 30.0745 30.4987 30.2597 30.5181 30.4448C30.5414 30.6144 30.6271 30.7692 30.7584 30.879C30.8898 30.9888 31.0575 31.0456 31.2285 31.0383ZM38.9171 39.0683C39.4564 39.0607 39.9903 38.9996 40.5189 38.885C41.0002 38.736 41.4356 38.4587 41.7771 38.0829C42.0422 37.7199 42.1719 37.2756 42.1437 36.8271C42.1437 36.0021 41.8 34.6752 41.7771 34.2879C41.7772 34.1034 41.7055 33.9261 41.5772 33.7935C41.4488 33.6609 41.274 33.5834 41.0896 33.5775C40.9993 33.5775 40.9099 33.5953 40.8265 33.6298C40.7431 33.6644 40.6673 33.715 40.6034 33.7788C40.5396 33.8427 40.489 33.9185 40.4544 34.0019C40.4199 34.0853 40.4021 34.1747 40.4021 34.265C40.4021 34.6087 40.2187 36.025 40.0835 36.7583H39.8314C39.5226 36.7256 39.2164 36.672 38.9148 36.5979C37.8171 36.5979 36.4214 36.3229 35.1175 36.3229C34.0425 36.2897 32.9799 36.5597 32.0512 37.1021C31.4957 37.4588 31.0608 37.9749 30.8036 38.583C30.5464 39.1911 30.4788 39.8627 30.6098 40.5098L30.9535 42.5471C30.9926 42.7523 31.1103 42.9343 31.2815 43.0541C31.4527 43.174 31.6639 43.2223 31.8702 43.1887C31.9712 43.1695 32.0674 43.1305 32.1532 43.0739C32.2391 43.0174 32.3129 42.9444 32.3704 42.8592C32.4279 42.774 32.468 42.6782 32.4883 42.5775C32.5087 42.4767 32.5089 42.3729 32.4889 42.2721V40.4181C32.4707 40.0582 32.5944 39.7055 32.8336 39.4359C33.0727 39.1663 33.4082 39.0014 33.7677 38.9766C34.5278 38.881 35.2969 38.881 36.0571 38.9766C37.0425 39.0683 38.0692 39.1141 38.9171 39.0683Z" fill="#0E83AD"/>
</g>
<defs>
<clipPath id="clip0_145_3">
<rect width="55" height="55" fill="white"/>
</clipPath>
</defs>
</svg>
